<svg width="18" height="10" viewBox="0 0 18 10" fill="none" xmlns="http://www.w3.org/2000/svg">
<path d="M1.79574 5.63476L13.6641 5.63151L12.2016 7.08276C11.9897 7.2946 11.8707 7.58192 11.8707 7.88151C11.8707 8.18109 11.9897 8.46841 12.2016 8.68026C12.4134 8.8921 12.7007 9.01111 13.0003 9.01111C13.2999 9.01111 13.5872 8.8921 13.7991 8.68026L17.1741 5.30526C17.2795 5.20067 17.3632 5.07625 17.4203 4.93915C17.4774 4.80206 17.5068 4.65502 17.5068 4.50651C17.5068 4.35799 17.4774 4.21095 17.4203 4.07386C17.3632 3.93676 17.2795 3.81234 17.1741 3.70776L13.7991 0.332755C13.6945 0.22731 13.5701 0.143618 13.433 0.086503C13.2959 0.0293884 13.1488 -1.71661e-05 13.0003 -1.71661e-05C12.8518 -1.71661e-05 12.7048 0.0293884 12.5677 0.086503C12.4306 0.143618 12.3061 0.22731 12.2016 0.332755C12.0961 0.437339 12.0124 0.561765 11.9553 0.698856C11.8982 0.835948 11.8688 0.982991 11.8688 1.13151C11.8688 1.28002 11.8982 1.42706 11.9553 1.56415C12.0124 1.70125 12.0961 1.82567 12.2016 1.93026L13.6641 3.38151L1.79574 3.38476C1.49737 3.38476 1.21122 3.50329 1.00024 3.71427C0.789267 3.92524 0.670738 4.21139 0.670738 4.50976C0.670738 4.80813 0.789267 5.09428 1.00024 5.30526C1.21122 5.51623 1.49737 5.63476 1.79574 5.63476Z" fill="white"/>
</svg>
