<svg fill="none" xmlns="http://www.w3.org/2000/svg" viewBox="-0.03 -0.03 26.92 26.92">
<path fill-rule="evenodd" clip-rule="evenodd" d="M26.3721 3.03636C26.6984 2.69845 26.879 2.24587 26.8749 1.7761C26.8709 1.30633 26.6824 0.856957 26.3502 0.524768C26.018 0.192578 25.5687 0.0041499 25.0989 6.77294e-05C24.6291 -0.00401444 24.1766 0.176576 23.8386 0.502943L13.4595 10.8821L3.08039 0.502943C2.74248 0.176576 2.2899 -0.00401444 1.82013 6.77294e-05C1.35036 0.0041499 0.900989 0.192578 0.5688 0.524768C0.23661 0.856957 0.0481822 1.30633 0.0441 1.7761C0.0400178 2.24587 0.220609 2.69845 0.546975 3.03636L10.9261 13.4155L0.546975 23.7946C0.375853 23.9599 0.239359 24.1576 0.14546 24.3762C0.0515603 24.5948 0.0021349 24.8299 6.7648e-05 25.0678C-0.00199961 25.3057 0.0433322 25.5416 0.133419 25.7618C0.223505 25.982 0.356542 26.182 0.524767 26.3502C0.692991 26.5185 0.893034 26.6515 1.11322 26.7416C1.33341 26.8317 1.56934 26.877 1.80724 26.8749C2.04513 26.8729 2.28023 26.8234 2.49882 26.7295C2.71741 26.6356 2.91512 26.4991 3.08039 26.328L13.4595 15.9489L23.8386 26.328C24.1766 26.6544 24.6291 26.835 25.0989 26.8309C25.5687 26.8268 26.018 26.6384 26.3502 26.3062C26.6824 25.974 26.8709 25.5246 26.8749 25.0549C26.879 24.5851 26.6984 24.1325 26.3721 23.7946L15.9929 13.4155L26.3721 3.03636Z" fill="#E6F7F7"/>
</svg>