<svg fill="none" xmlns="http://www.w3.org/2000/svg" viewBox="0.23 0 42.52 23.23">
<path d="M42.75 22.5857C42.1315 22.8059 41.4487 22.8054 40.8305 22.5843C40.2123 22.3632 39.7014 21.9369 39.3943 21.3857L33.2849 13.434L32.3995 12.3223L25.3109 21.3957C25.0222 21.9238 24.539 22.3348 23.9517 22.552C23.3645 22.7692 22.7132 22.7776 22.1198 22.5757L31.2538 11.0423L22.7573 0.624003C23.3682 0.416794 24.0364 0.414048 24.6492 0.616224C25.262 0.818401 25.7821 1.21315 26.1219 1.734L32.4544 9.784L38.8223 1.76734C39.1132 1.24865 39.5965 0.84865 40.1802 0.643384C40.764 0.438118 41.4076 0.441897 41.9886 0.654003L38.6913 4.77234L34.2252 10.244C34.1012 10.3481 34.002 10.4758 33.934 10.6185C33.8661 10.7613 33.8309 10.9159 33.8309 11.0723C33.8309 11.2288 33.8661 11.3834 33.934 11.5262C34.002 11.6689 34.1012 11.7965 34.2252 11.9007L42.7323 22.5873L42.75 22.5857ZM0.253563 10.899L0.997313 7.44067C3.04085 0.602337 11.3709 -2.24266 17.1013 1.99067C20.457 4.47234 21.2946 7.98567 21.1299 11.9457H2.22627C1.91992 19.0173 7.34221 23.2873 14.275 21.1057C15.3989 20.7249 16.4049 20.0877 17.2028 19.2512C18.0008 18.4147 18.5658 17.4049 18.8473 16.3123C19.2139 15.2023 19.8177 15.0123 20.9263 15.3323C20.7415 16.6863 20.233 17.9832 19.4389 19.1255C18.6448 20.2678 17.5858 21.2258 16.3416 21.9273C14.2864 22.9854 11.9284 23.4047 9.60467 23.1255C7.28097 22.8462 5.1106 21.8825 3.40388 20.3723C1.71632 18.5847 0.696406 16.3265 0.499709 13.9423C0.499709 13.5507 0.358042 13.184 0.262417 12.8323C0.253797 12.1885 0.249665 11.5446 0.250021 10.9007L0.253563 10.899ZM2.24929 10.4223H19.3449C19.2387 5.29567 15.8015 1.659 11.2168 1.62567C6.11325 1.559 2.46179 5.11567 2.2369 10.399L2.24929 10.4223Z" fill="#E6F7F7"/>
</svg>