<svg fill="none" xmlns="http://www.w3.org/2000/svg" viewBox="0 0 21.33 32.02">
<g opacity="0.8">
<path opacity="0.6" d="M10.6668 0H5.33336C2.38782 0 0 2.38782 0 5.33336C0 8.27889 2.38782 10.6667 5.33336 10.6667H10.6668V0Z" fill="#E6F7F7"/>
<path opacity="0.4" d="M10.6668 10.6664H5.33336C2.38782 10.6664 0 13.0543 0 15.9998C0 18.9454 2.38782 21.3332 5.33336 21.3332H10.6668V10.6664Z" fill="#E6F7F7"/>
<path d="M21.3326 15.9998C21.3326 18.9454 18.9447 21.3332 15.9991 21.3332C13.0536 21.3332 10.6658 18.9454 10.6658 15.9998C10.6658 13.0543 13.0536 10.6664 15.9991 10.6664C18.9447 10.6664 21.3326 13.0543 21.3326 15.9998Z" fill="#E6F7F7"/>
<path opacity="0.2" d="M5.33336 21.3337H10.6668V26.667C10.6668 29.6126 8.27893 32.0005 5.33336 32.0005C2.38782 32.0005 0 29.6126 0 26.667C0 23.7216 2.38782 21.3337 5.33336 21.3337Z" fill="#E6F7F7"/>
<path opacity="0.8" d="M10.6658 0H15.9991C18.9447 0 21.3326 2.38782 21.3326 5.33336C21.3326 8.27889 18.9447 10.6667 15.9991 10.6667H10.6658V0Z" fill="#E6F7F7"/>
</g>
</svg>