<svg fill="none" xmlns="http://www.w3.org/2000/svg" viewBox="-0.47 -2 39.75 25">
<path d="M12.9438 4.13005C12.386 4.35506 11.8528 4.66613 11.3435 5.05942C11.9325 3.8337 12.7088 2.86869 13.664 2.14944C15.1053 1.06423 17.0052 0.5 19.4062 0.5C22.9755 0.5 24.9548 1.74759 26.5147 3.11086C26.8954 3.44353 27.2508 3.78304 27.6045 4.12094L27.6496 4.16406C28.0151 4.51314 28.3814 4.86163 28.7576 5.18035C29.5126 5.81987 30.339 6.36731 31.3777 6.61171C32.7084 6.92481 33.9766 6.84952 35.1656 6.36995C35.7234 6.14494 36.2566 5.83387 36.7659 5.44058C36.1769 6.6663 35.4006 7.6313 34.4453 8.35056C33.0041 9.43577 31.1042 10 28.7031 10C25.1339 10 23.1545 8.75241 21.5947 7.38914C21.214 7.05647 20.8586 6.71696 20.5049 6.37906L20.4598 6.33594C20.0943 5.98686 19.728 5.63837 19.3517 5.31965C18.5968 4.68013 17.7704 4.13269 16.7317 3.88829C15.401 3.57519 14.1328 3.65048 12.9438 4.13005ZM3.64695 14.6301C3.08911 14.8551 2.5559 15.1661 2.04659 15.5594C2.63561 14.3337 3.41189 13.3687 4.36716 12.6494C5.80844 11.5642 7.70829 11 10.1094 11C13.6786 11 15.658 12.2476 17.2178 13.6109C17.5985 13.9435 17.9539 14.283 18.3076 14.621L18.3527 14.6641C18.7182 15.0131 19.0845 15.3616 19.4608 15.6804C20.2157 16.3199 21.0421 16.8673 22.0808 17.1117C23.4115 17.4248 24.6797 17.3495 25.8687 16.8699C26.4265 16.6449 26.9597 16.3339 27.469 15.9406C26.88 17.1663 26.1037 18.1313 25.1485 18.8506C23.7072 19.9358 21.8073 20.5 19.4062 20.5C15.837 20.5 13.8577 19.2524 12.2978 17.8891C11.9171 17.5565 11.5617 17.2169 11.208 16.879L11.1629 16.8359C10.7974 16.4869 10.4311 16.1384 10.0549 15.8196C9.29988 15.1801 8.47353 14.6327 7.43483 14.3883C6.10415 14.0752 4.83588 14.1505 3.64695 14.6301Z" fill="#E6F7F7" stroke="#E6F7F7"/>
</svg>