<svg fill="none" xmlns="http://www.w3.org/2000/svg" viewBox="0 -0.03 37.22 35.03">
<path d="M35.445 0H1.7425C0.780144 0 0 0.734253 0 1.64V33.36C0 34.2657 0.780144 35 1.7425 35H35.445C36.4074 35 37.1875 34.2657 37.1875 33.36V1.64C37.1875 0.734253 36.4074 0 35.445 0Z" fill="#E6F7F7"/>
<path fill-rule="evenodd" clip-rule="evenodd" d="M21.5755 27.1988V31.0338C22.3158 31.3777 23.1048 31.6197 23.9183 31.7525C24.8583 31.9158 25.8125 31.9962 26.7684 31.9925C27.7001 31.9967 28.6296 31.9083 29.5416 31.7288C30.3603 31.573 31.1415 31.2764 31.8458 30.8538C32.4997 30.4565 33.0387 29.9127 33.4144 29.2713C34.0872 27.9429 34.176 26.4183 33.6614 25.0288C33.4442 24.5091 33.1207 24.0347 32.7091 23.6325C32.2674 23.2048 31.7656 22.836 31.2176 22.5363C30.5868 22.1885 29.9314 21.882 29.256 21.6188C28.7248 21.4113 28.2466 21.2096 27.8216 21.0138C27.4441 20.8437 27.0829 20.6433 26.7419 20.415C26.4748 20.2388 26.2428 20.0196 26.0566 19.7675C25.8957 19.5386 25.8119 19.2694 25.8162 18.995C25.8126 18.7425 25.8874 18.4944 26.0313 18.2813C26.1876 18.0582 26.3962 17.8717 26.6409 17.7363C26.9401 17.5705 27.2657 17.451 27.6051 17.3825C28.0219 17.2954 28.4479 17.2534 28.8748 17.2575C29.2339 17.2587 29.5924 17.2829 29.948 17.33C30.3319 17.3789 30.7118 17.4528 31.0848 17.5513C31.4643 17.6502 31.8354 17.7756 32.1951 17.9263C32.5442 18.0727 32.8781 18.2493 33.1926 18.4538V14.875C32.538 14.6419 31.8591 14.4743 31.1672 14.375C30.3317 14.2606 29.488 14.2067 28.6437 14.2138C27.7208 14.2091 26.8006 14.3077 25.9025 14.5075C25.0907 14.6821 24.3187 14.9924 23.6234 15.4238C22.9775 15.8287 22.4442 16.3735 22.0682 17.0125C21.6697 17.7221 21.4726 18.5165 21.4958 19.3188C21.4663 20.3797 21.8376 21.4162 22.5437 22.2438C23.4099 23.1614 24.5021 23.8649 25.7245 24.2925C26.2823 24.5092 26.8025 24.7213 27.2851 24.9288C27.7205 25.1111 28.1389 25.3272 28.5362 25.575C28.8566 25.7712 29.138 26.0187 29.3676 26.3063C29.5695 26.5671 29.6766 26.8823 29.673 27.205C29.6749 27.4468 29.6089 27.6848 29.4818 27.895C29.3405 28.1208 29.1421 28.3102 28.9041 28.4463C28.6062 28.6171 28.2804 28.7405 27.9398 28.8113C27.4962 28.9046 27.0424 28.9487 26.5878 28.9425C25.6957 28.941 24.8107 28.7929 23.9727 28.505C23.0972 28.2077 22.2854 27.7653 21.5755 27.1988ZM14.7303 17.6513H20.0428V14.4925H5.23022V17.6513H10.5188V31.7188H14.7303V17.6513Z" fill="#4C8080"/>
</svg>