<svg width="65" height="65" viewBox="0 0 65 65" fill="none" xmlns="http://www.w3.org/2000/svg">
<path d="M53.8004 34.7188C52.6848 42.3014 45.9297 48.1514 37.7874 48.1514C35.6594 48.1514 33.6267 47.7508 31.7645 47.0245L26.1565 56.4194C29.7476 58.0564 33.6983 58.9199 37.7867 58.9199C39.9226 58.9199 42.0212 58.6815 44.0503 58.2241C44.2065 55.2544 45.8652 52.4192 48.7247 50.8224C51.5807 49.227 54.9432 49.2526 57.6774 50.602C61.942 46.2233 64.492 40.6727 64.9993 34.7188L53.8004 34.7188ZM21.6117 32.5052C21.6117 27.5201 24.0342 23.0729 27.7994 20.2057L22.1935 10.8129C20.8788 11.7014 19.6349 12.707 18.4763 13.8269C15.232 16.965 12.9056 20.7539 11.6252 24.8893C14.2046 26.5055 15.9127 29.311 15.9127 32.5052C15.9127 35.6987 14.2046 38.5049 11.6252 40.1204C12.9056 44.2558 15.232 48.0447 18.4763 51.1828C19.6342 52.3027 20.8766 53.3069 22.1907 54.1961L27.7973 44.8026C24.0328 41.9355 21.6117 37.4882 21.6117 32.5052ZM37.7874 16.8583C45.9275 16.8583 52.6813 22.7048 53.7997 30.2847H65C64.4913 24.3286 61.9384 18.7774 57.6702 14.3994C54.9368 15.746 51.5757 15.7716 48.7204 14.1776C45.863 12.5816 44.2051 9.75116 44.046 6.78493C42.0176 6.32754 39.9218 6.09049 37.7874 6.09049C33.7005 6.09049 29.7512 6.95334 26.1593 8.58961L31.7667 17.9838C33.6288 17.2589 35.6608 16.8583 37.7874 16.8583ZM59.9451 6.32334C59.9451 7.15373 59.776 7.976 59.4475 8.74318C59.119 9.51036 58.6374 10.2074 58.0304 10.7946C57.4233 11.3818 56.7027 11.8476 55.9095 12.1653C55.1164 12.4831 54.2663 12.6467 53.4078 12.6467C52.5493 12.6467 51.6992 12.4831 50.906 12.1654C50.1129 11.8476 49.3922 11.3818 48.7852 10.7946C48.1781 10.2074 47.6966 9.51037 47.3681 8.74318C47.0395 7.976 46.8704 7.15373 46.8704 6.32334C46.8704 5.49295 47.0395 4.67069 47.3681 3.9035C47.6966 3.13632 48.1781 2.43924 48.7852 1.85206C49.3922 1.26489 50.1129 0.799111 50.9061 0.481334C51.6992 0.163557 52.5493 -7.82457e-07 53.4078 0C55.1416 4.30979e-07 56.8044 0.666208 58.0304 1.85206C59.2564 3.03792 59.9451 4.64629 59.9451 6.32334ZM59.9507 58.6767C59.9507 60.3537 59.262 61.9621 58.036 63.1479C56.81 64.3338 55.1472 65 53.4134 65C52.5549 65 51.7048 64.8364 50.9117 64.5187C50.1185 64.2009 49.3978 63.7351 48.7908 63.1479C48.1837 62.5608 47.7022 61.8637 47.3737 61.0965C47.0451 60.3293 46.876 59.507 46.876 58.6767C46.876 57.8463 47.0451 57.024 47.3737 56.2568C47.7022 55.4896 48.1837 54.7926 48.7908 54.2054C49.3978 53.6182 50.1185 53.1524 50.9117 52.8346C51.7048 52.5169 52.5549 52.3533 53.4134 52.3533C54.2719 52.3533 55.122 52.5169 55.9151 52.8346C56.7083 53.1524 57.4289 53.6182 58.036 54.2054C58.643 54.7926 59.1245 55.4896 59.4531 56.2568C59.7816 57.024 59.9507 57.8463 59.9507 58.6767ZM13.0747 32.5052C13.0747 34.1823 12.3859 35.7906 11.1599 36.9765C9.93393 38.1623 8.27114 38.8285 6.53733 38.8285C4.80352 38.8285 3.14073 38.1623 1.91474 36.9765C0.688753 35.7906 4.45562e-07 34.1823 0 32.5052C-5.14778e-07 31.6748 0.169092 30.8525 0.497624 30.0854C0.826155 29.3182 1.30769 28.6211 1.91474 28.0339C2.52179 27.4467 3.24246 26.981 4.0356 26.6632C4.82875 26.3454 5.67884 26.1819 6.53733 26.1819C7.39582 26.1819 8.24591 26.3454 9.03906 26.6632C9.8322 26.981 10.5529 27.4467 11.1599 28.0339C11.767 28.6211 12.2485 29.3182 12.577 30.0854C12.9056 30.8525 13.0747 31.6748 13.0747 32.5052Z" fill="#E6F7F7"/>
</svg>
