<svg fill="none" xmlns="http://www.w3.org/2000/svg" viewBox="8.03 8.07 26.9 26.92">
<path fill-rule="evenodd" clip-rule="evenodd" d="M34.4126 11.1209C34.739 10.7829 34.9195 10.3304 34.9155 9.8606C34.9114 9.39083 34.7229 8.94146 34.3908 8.60927C34.0586 8.27708 33.6092 8.08865 33.1394 8.08457C32.6697 8.08049 32.2171 8.26108 31.8792 8.58745L21.5 18.9666L11.1209 8.58745C10.783 8.26108 10.3304 8.08049 9.86066 8.08457C9.39089 8.08865 8.94152 8.27708 8.60933 8.60927C8.27714 8.94146 8.08871 9.39083 8.08463 9.8606C8.08055 10.3304 8.26114 10.7829 8.5875 11.1209L18.9666 21.5L8.5875 31.8791C8.41638 32.0444 8.27989 32.2421 8.18599 32.4607C8.09209 32.6793 8.04266 32.9144 8.04059 33.1523C8.03853 33.3902 8.08386 33.6261 8.17395 33.8463C8.26403 34.0665 8.39707 34.2665 8.56529 34.4347C8.73352 34.603 8.93356 34.736 9.15375 34.8261C9.37394 34.9162 9.60987 34.9615 9.84776 34.9594C10.0857 34.9574 10.3208 34.9079 10.5394 34.814C10.7579 34.7201 10.9556 34.5837 11.1209 34.4125L21.5 24.0334L31.8792 34.4125C32.2171 34.7389 32.6697 34.9195 33.1394 34.9154C33.6092 34.9113 34.0586 34.7229 34.3908 34.3907C34.7229 34.0585 34.9114 33.6091 34.9155 33.1394C34.9195 32.6696 34.739 32.217 34.4126 31.8791L24.0335 21.5L34.4126 11.1209Z" fill="#1D2626"/>
</svg>