<svg width="22" height="32" viewBox="0 0 22 32" fill="none" xmlns="http://www.w3.org/2000/svg">
<path opacity="0.6" d="M10.6668 0H5.33336C2.38782 0 0 2.38782 0 5.33336C0 8.27889 2.38782 10.6667 5.33336 10.6667H10.6668V0Z" fill="#475959" fill-opacity="0.8"/>
<path opacity="0.4" d="M10.6668 10.6664H5.33336C2.38782 10.6664 0 13.0543 0 15.9998C0 18.9454 2.38782 21.3332 5.33336 21.3332H10.6668V10.6664Z" fill="#475959" fill-opacity="0.7"/>
<path d="M21.3323 15.9998C21.3323 18.9454 18.9445 21.3332 15.9988 21.3332C13.0534 21.3332 10.6655 18.9454 10.6655 15.9998C10.6655 13.0543 13.0534 10.6664 15.9988 10.6664C18.9445 10.6664 21.3323 13.0543 21.3323 15.9998Z" fill="#475959"/>
<path opacity="0.2" d="M5.33336 21.3337H10.6668V26.667C10.6668 29.6127 8.27893 32.0005 5.33336 32.0005C2.38782 32.0005 0 29.6127 0 26.667C0 23.7216 2.38782 21.3337 5.33336 21.3337Z" fill="#475959" fill-opacity="0.6"/>
<path opacity="0.8" d="M10.6655 0H15.9988C18.9445 0 21.3323 2.38782 21.3323 5.33336C21.3323 8.27889 18.9445 10.6667 15.9988 10.6667H10.6655V0Z" fill="#475959" fill-opacity="0.9"/>
</svg>
