<svg width="41" height="40" viewBox="0 0 41 40" fill="none" xmlns="http://www.w3.org/2000/svg">
<path fill-rule="evenodd" clip-rule="evenodd" d="M20.4092 1C15.7796 0.997626 11.3004 2.64214 7.77352 5.63909C4.24667 8.63603 1.90256 12.7897 1.16093 17.3562C0.419293 21.9228 1.32857 26.6041 3.72594 30.5618C6.12331 34.5195 9.8522 37.4952 14.2449 38.956C15.2239 39.1372 15.5775 38.5393 15.5775 38.0501C15.5775 37.561 15.5775 36.3652 15.5775 34.7437C10.1384 35.9213 9.01436 32.1348 9.01436 32.1348C8.65459 30.9367 7.87184 29.9099 6.81154 29.2451C5.04385 28.0403 6.94752 28.0584 6.94752 28.0584C7.56499 28.1447 8.15459 28.3708 8.67142 28.7193C9.18826 29.0678 9.61869 29.5295 9.92993 30.0694C11.6704 33.0497 14.4625 32.1891 15.6047 31.6909C15.6949 30.7013 16.1352 29.7763 16.8466 29.082C12.5135 28.5928 7.96281 26.926 7.96281 19.4617C7.93409 17.5252 8.65509 15.6526 9.97526 14.2348C9.37547 12.5557 9.44362 10.7107 10.1656 9.08037C10.1656 9.08037 11.7973 8.55497 15.5231 11.0733C18.7162 10.2036 22.084 10.2036 25.2771 11.0733C29.0029 8.55497 30.6346 9.08037 30.6346 9.08037C31.3511 10.7119 31.4192 12.5549 30.8249 14.2348C32.1426 15.6535 32.8605 17.5263 32.8283 19.4617C32.8283 26.9442 28.2958 28.5838 23.9355 29.073C24.4033 29.5467 24.7637 30.1155 24.9921 30.7407C25.2204 31.3659 25.3115 32.0329 25.259 32.6964C25.259 35.2963 25.259 37.3979 25.259 38.0411C25.259 38.6842 25.6125 39.1644 26.6006 38.9469C30.9888 37.4804 34.7118 34.5016 37.1035 30.5434C39.4953 26.5852 40.3997 21.9057 39.6551 17.3421C38.9105 12.7785 36.5654 8.62849 33.0394 5.63444C29.5133 2.64039 25.0363 0.997621 20.4092 1Z" stroke="#E6F7F7" stroke-width="2.5" stroke-linecap="round" stroke-linejoin="round"/>
</svg>
