<svg width="32" height="32" viewBox="0 0 32 32" fill="none" xmlns="http://www.w3.org/2000/svg">
<path fill-rule="evenodd" clip-rule="evenodd" d="M15.9092 24.5C20.6036 24.5 24.4092 20.6944 24.4092 16C24.4092 11.3056 20.6036 7.5 15.9092 7.5C11.2148 7.5 7.40918 11.3056 7.40918 16C7.40918 20.6944 11.2148 24.5 15.9092 24.5ZM15.9092 21.6667C19.0387 21.6667 21.5758 19.1296 21.5758 16C21.5758 12.8704 19.0387 10.3333 15.9092 10.3333C12.7796 10.3333 10.2425 12.8704 10.2425 16C10.2425 19.1296 12.7796 21.6667 15.9092 21.6667Z" fill="#E6F7F7"/>
<path d="M24.4093 6.08325C23.6269 6.08325 22.9927 6.71752 22.9927 7.49992C22.9927 8.28232 23.6269 8.91659 24.4093 8.91659C25.1918 8.91659 25.826 8.28232 25.826 7.49992C25.826 6.71752 25.1918 6.08325 24.4093 6.08325Z" fill="#E6F7F7"/>
<path fill-rule="evenodd" clip-rule="evenodd" d="M1.25213 5.05783C0.325684 6.87608 0.325684 9.25631 0.325684 14.0167V17.9834C0.325684 22.7438 0.325684 25.1241 1.25213 26.9423C2.06705 28.5417 3.36738 29.842 4.96677 30.6569C6.78502 31.5834 9.16525 31.5834 13.9257 31.5834H17.8923C22.6528 31.5834 25.0331 31.5834 26.8512 30.6569C28.4506 29.842 29.751 28.5417 30.5659 26.9423C31.4923 25.1241 31.4923 22.7438 31.4923 17.9834V14.0167C31.4923 9.25631 31.4923 6.87608 30.5659 5.05783C29.751 3.45844 28.4506 2.15811 26.8512 1.34319C25.0331 0.416748 22.6528 0.416748 17.8923 0.416748H13.9257C9.16525 0.416748 6.78502 0.416748 4.96677 1.34319C3.36738 2.15811 2.06705 3.45844 1.25213 5.05783ZM17.8923 3.25008H13.9257C11.4987 3.25008 9.84887 3.25229 8.57363 3.35647C7.33144 3.45796 6.69621 3.64192 6.25307 3.86771C5.18682 4.411 4.31993 5.27788 3.77664 6.34414C3.55085 6.78727 3.3669 7.4225 3.26541 8.66469C3.16123 9.93994 3.15902 11.5898 3.15902 14.0167V17.9834C3.15902 20.4104 3.16123 22.0602 3.26541 23.3354C3.3669 24.5777 3.55085 25.2129 3.77664 25.6561C4.31993 26.7223 5.18682 27.5891 6.25307 28.1324C6.69621 28.3582 7.33144 28.5423 8.57363 28.6437C9.84887 28.7478 11.4987 28.7501 13.9257 28.7501H17.8923C20.3194 28.7501 21.9691 28.7478 23.2444 28.6437C24.4867 28.5423 25.1219 28.3582 25.565 28.1324C26.6312 27.5891 27.4981 26.7223 28.0413 25.6561C28.2672 25.2129 28.4512 24.5777 28.5526 23.3354C28.6567 22.0602 28.659 20.4104 28.659 17.9834V14.0167C28.659 11.5898 28.6567 9.93994 28.5526 8.66469C28.4512 7.4225 28.2672 6.78727 28.0413 6.34414C27.4981 5.27788 26.6312 4.411 25.565 3.86771C25.1219 3.64192 24.4867 3.45796 23.2444 3.35647C21.9691 3.25229 20.3194 3.25008 17.8923 3.25008Z" fill="#E6F7F7"/>
</svg>
