<svg width="41" height="33" viewBox="0 0 41 33" fill="none" xmlns="http://www.w3.org/2000/svg">
<path d="M23.9796 16.2199C23.9796 14.4269 22.3868 12.9731 20.4217 12.9731C18.4569 12.9731 16.8638 14.4269 16.8638 16.2199C16.8638 18.0131 18.4569 19.4668 20.4217 19.4668C22.3868 19.4668 23.9796 18.0131 23.9796 16.2199Z" fill="#475959"/>
<path fill-rule="evenodd" clip-rule="evenodd" d="M31.9771 10.1921C32.7284 7.40597 33.6728 2.23935 30.3435 0.487699C27.0297 -1.25631 22.7174 2.08554 20.4403 4.09147C18.1699 2.10552 13.7365 -1.22204 10.41 0.535173C7.09747 2.28504 8.11897 7.366 8.88698 10.1696C5.79697 10.9705 0.5 12.6955 0.5 16.2199C0.5 19.7342 5.79146 21.611 8.86318 22.4111C8.09233 25.2302 7.12198 30.2386 10.4387 31.9846C13.7777 33.7415 18.1973 30.4931 20.4955 28.4652C22.7871 30.483 27.058 33.7526 30.3725 32.0017C33.6973 30.2454 32.8313 25.148 32.0633 22.3281C35.0409 21.5262 40.3438 19.6904 40.3438 16.2199C40.3438 12.7294 35.0184 10.9904 31.9771 10.1921ZM31.5996 20.8337C31.0954 19.377 30.4147 17.8279 29.5821 16.2276C30.3768 14.6651 31.0311 13.136 31.5213 11.6886C33.7508 12.2785 38.6418 13.6266 38.6418 16.2199C38.6418 18.8375 33.9483 20.1984 31.5996 20.8337ZM29.5195 30.6575C27.0466 31.9637 23.3731 28.837 21.6807 27.3511C22.8035 26.2305 23.9255 24.9277 25.0205 23.4811C26.9468 23.3252 28.7665 23.0702 30.4168 22.7221C30.9574 24.7167 32.0034 29.3454 29.5195 30.6575ZM11.2892 30.6389C8.81596 29.3375 9.94639 24.8682 10.5135 22.7916C12.1455 23.1211 13.952 23.3581 15.8829 23.501C16.9851 24.9165 18.1396 26.2176 19.3031 27.3571C17.8656 28.626 13.7739 31.9462 11.2892 30.6389ZM2.20198 16.2199C2.20198 13.5925 7.06369 12.2541 9.34404 11.6657C9.84271 13.1456 10.4967 14.693 11.286 16.2577C10.4865 17.8457 9.82313 19.4176 9.31988 20.915C7.14553 20.347 2.20198 18.8489 2.20198 16.2199ZM11.2627 1.87942C13.7461 0.567699 17.5992 3.76229 19.2477 5.20016C18.0902 6.33442 16.9463 7.62575 15.8535 9.03312C13.9797 9.19162 12.1858 9.44612 10.5368 9.78712C9.91807 7.52589 8.78208 3.18974 11.2627 1.87942ZM26.2381 10.7214C27.5094 10.8677 28.7274 11.0625 29.8711 11.3007C29.5278 12.305 29.0998 13.3551 28.5958 14.4316C27.8652 13.1666 27.081 11.927 26.2381 10.7214ZM20.4409 6.31012C21.2259 7.08621 22.0122 7.95287 22.7857 8.89312C21.2168 8.82537 19.6453 8.82512 18.0764 8.89212C18.8506 7.9606 19.6436 7.09522 20.4409 6.31012ZM12.2625 14.4305C11.7669 13.3577 11.3428 12.303 10.9965 11.2844C12.1333 11.0522 13.3456 10.8625 14.6087 10.7185C13.7635 11.9215 12.9805 13.1606 12.2625 14.4305ZM14.6449 21.8321C13.3402 21.6992 12.1095 21.5191 10.973 21.2934C11.3248 20.2569 11.7582 19.1794 12.2645 18.0835C12.9923 19.3666 13.7872 20.6177 14.6449 21.8321ZM20.488 26.2394C19.6813 25.445 18.8766 24.5664 18.0907 23.6214C19.6686 23.6779 21.2494 23.678 22.8271 23.6137C22.0512 24.576 21.2678 25.4559 20.488 26.2394ZM28.612 18.0277C29.1446 19.1355 29.5935 20.2071 29.9501 21.2261C28.7948 21.4667 27.5475 21.6605 26.2334 21.8044C27.0824 20.5759 27.8792 19.317 28.612 18.0277ZM24.0706 21.9926C21.6572 22.15 19.2287 22.1482 16.8144 22.0055C15.4426 20.1769 14.2214 18.2537 13.1673 16.2572C14.2163 14.2649 15.4287 12.3455 16.794 10.5197C19.21 10.3531 21.6408 10.3526 24.0568 10.5207C25.4104 12.3464 26.6209 14.2607 27.6943 16.2351C26.6336 18.2265 25.415 20.1497 24.0706 21.9926ZM29.4934 1.83325C31.9774 3.14067 30.8717 7.78407 30.329 9.80325C28.676 9.45512 26.8809 9.19612 25.0016 9.03512C23.9067 7.61255 22.7724 6.31897 21.6337 5.19936C23.3032 3.73051 27.0334 0.538611 29.4934 1.83325Z" fill="#475959"/>
</svg>
