<svg width="26" height="26" viewBox="0 0 26 26" fill="none" opacity="0.7" xmlns="http://www.w3.org/2000/svg">
<path d="M19.5415 12.5417C19.5415 16.4076 16.4075 19.5417 12.5415 19.5417C8.67551 19.5417 5.5415 16.4076 5.5415 12.5417C5.5415 8.67566 8.67551 5.54166 12.5415 5.54166C16.4075 5.54166 19.5415 8.67566 19.5415 12.5417Z" fill="#E6F7F7"/>
<path fill-rule="evenodd" clip-rule="evenodd" d="M12.5417 0C13.0249 0 13.4167 0.391755 13.4167 0.875V2.04167C13.4167 2.52491 13.0249 2.91667 12.5417 2.91667C12.0584 2.91667 11.6667 2.52491 11.6667 2.04167V0.875C11.6667 0.391755 12.0584 0 12.5417 0ZM3.67338 3.67338C4.01508 3.33167 4.56911 3.33167 4.91081 3.67338L5.36913 4.13169C5.71083 4.4734 5.71083 5.02741 5.36913 5.36913C5.02741 5.71083 4.4734 5.71083 4.13169 5.36913L3.67338 4.91081C3.33167 4.56911 3.33167 4.01508 3.67338 3.67338ZM21.4096 3.67368C21.7513 4.01539 21.7513 4.56941 21.4096 4.91112L20.9513 5.36943C20.6096 5.71114 20.0556 5.71114 19.7139 5.36943C19.3721 5.02771 19.3721 4.4737 19.7139 4.13199L20.1723 3.67368C20.514 3.33198 21.0679 3.33198 21.4096 3.67368ZM0 12.5417C0 12.0584 0.391755 11.6667 0.875 11.6667H2.04167C2.52491 11.6667 2.91667 12.0584 2.91667 12.5417C2.91667 13.0249 2.52491 13.4167 2.04167 13.4167H0.875C0.391755 13.4167 0 13.0249 0 12.5417ZM22.1667 12.5417C22.1667 12.0584 22.5584 11.6667 23.0417 11.6667H24.2083C24.6916 11.6667 25.0833 12.0584 25.0833 12.5417C25.0833 13.0249 24.6916 13.4167 24.2083 13.4167H23.0417C22.5584 13.4167 22.1667 13.0249 22.1667 12.5417ZM19.7139 19.7139C20.0556 19.3721 20.6096 19.3721 20.9513 19.7139L21.4096 20.1723C21.7513 20.514 21.7513 21.0679 21.4096 21.4096C21.0679 21.7513 20.514 21.7513 20.1723 21.4096L19.7139 20.9513C19.3721 20.6096 19.3721 20.0556 19.7139 19.7139ZM5.36913 19.7142C5.71083 20.0559 5.71083 20.61 5.36913 20.9517L4.91081 21.41C4.56911 21.7517 4.01508 21.7517 3.67338 21.41C3.33167 21.0682 3.33167 20.5142 3.67338 20.1725L4.13169 19.7142C4.4734 19.3725 5.02741 19.3725 5.36913 19.7142ZM12.5417 22.1667C13.0249 22.1667 13.4167 22.5584 13.4167 23.0417V24.2083C13.4167 24.6916 13.0249 25.0833 12.5417 25.0833C12.0584 25.0833 11.6667 24.6916 11.6667 24.2083V23.0417C11.6667 22.5584 12.0584 22.1667 12.5417 22.1667Z" fill="#E6F7F7"/>
</svg>
