<svg width="28" height="28" viewBox="0 0 28 28" fill="none" xmlns="http://www.w3.org/2000/svg">
<path d="M21 14C21 17.866 17.866 21 14 21C10.134 21 7 17.866 7 14C7 10.134 10.134 7 14 7C17.866 7 21 10.134 21 14Z" fill="#E6F7F7" fill-opacity="0.4"/>
<path fill-rule="evenodd" clip-rule="evenodd" d="M14.0002 1.45834C14.4834 1.45834 14.8752 1.8501 14.8752 2.33334V3.50001C14.8752 3.98326 14.4834 4.37501 14.0002 4.37501C13.5169 4.37501 13.1252 3.98326 13.1252 3.50001V2.33334C13.1252 1.8501 13.5169 1.45834 14.0002 1.45834ZM5.13187 5.13172C5.47358 4.79002 6.02761 4.79002 6.36931 5.13172L6.82762 5.59003C7.16933 5.93174 7.16933 6.48575 6.82762 6.82747C6.48591 7.16918 5.93189 7.16918 5.59019 6.82747L5.13187 6.36916C4.79017 6.02745 4.79017 5.47343 5.13187 5.13172ZM22.8681 5.13203C23.2098 5.47373 23.2098 6.02776 22.8681 6.36946L22.4098 6.82777C22.0681 7.16948 21.5141 7.16948 21.1724 6.82777C20.8306 6.48606 20.8306 5.93204 21.1724 5.59034L21.6307 5.13203C21.9725 4.79032 22.5264 4.79032 22.8681 5.13203ZM1.4585 14C1.4585 13.5168 1.85025 13.125 2.3335 13.125H3.50016C3.98341 13.125 4.37516 13.5168 4.37516 14C4.37516 14.4832 3.98341 14.875 3.50016 14.875H2.3335C1.85025 14.875 1.4585 14.4832 1.4585 14ZM23.6252 14C23.6252 13.5168 24.0169 13.125 24.5002 13.125H25.6668C26.1501 13.125 26.5418 13.5168 26.5418 14C26.5418 14.4832 26.1501 14.875 25.6668 14.875H24.5002C24.0169 14.875 23.6252 14.4832 23.6252 14ZM21.1724 21.1722C21.5141 20.8305 22.0681 20.8305 22.4098 21.1722L22.8681 21.6306C23.2098 21.9723 23.2098 22.5262 22.8681 22.868C22.5264 23.2097 21.9725 23.2097 21.6307 22.868L21.1724 22.4097C20.8306 22.068 20.8306 21.5139 21.1724 21.1722ZM6.82762 21.1726C7.16933 21.5143 7.16933 22.0683 6.82762 22.41L6.36931 22.8683C6.02761 23.21 5.47358 23.21 5.13187 22.8683C4.79017 22.5266 4.79017 21.9725 5.13187 21.6308L5.59019 21.1726C5.93189 20.8308 6.48591 20.8308 6.82762 21.1726ZM14.0002 23.625C14.4834 23.625 14.8752 24.0168 14.8752 24.5V25.6667C14.8752 26.1499 14.4834 26.5417 14.0002 26.5417C13.5169 26.5417 13.1252 26.1499 13.1252 25.6667V24.5C13.1252 24.0168 13.5169 23.625 14.0002 23.625Z" fill="#E6F7F7" fill-opacity="0.4"/>
</svg>
