<svg width="38" height="35" viewBox="0 0 38 35" fill="none" xmlns="http://www.w3.org/2000/svg">
<path d="M35.445 0H1.7425C0.780144 0 0 0.734253 0 1.64V33.36C0 34.2657 0.780144 35 1.7425 35H35.445C36.4074 35 37.1875 34.2657 37.1875 33.36V1.64C37.1875 0.734253 36.4074 0 35.445 0Z" fill="#475959"/>
<path fill-rule="evenodd" clip-rule="evenodd" d="M21.5757 27.1988V31.0338C22.3161 31.3777 23.105 31.6197 23.9185 31.7525C24.8586 31.9158 25.8128 31.9962 26.7687 31.9925C27.7003 31.9967 28.6299 31.9083 29.5418 31.7288C30.3606 31.573 31.1418 31.2764 31.8461 30.8538C32.5 30.4565 33.0389 29.9127 33.4146 29.2713C34.0875 27.9429 34.1762 26.4183 33.6616 25.0288C33.4445 24.5091 33.1209 24.0347 32.7094 23.6325C32.2676 23.2048 31.7658 22.836 31.2179 22.5363C30.5871 22.1885 29.9317 21.882 29.2563 21.6188C28.725 21.4113 28.2469 21.2096 27.8219 21.0138C27.4444 20.8437 27.0831 20.6433 26.7421 20.415C26.475 20.2388 26.243 20.0196 26.0568 19.7675C25.8959 19.5386 25.8121 19.2694 25.8164 18.995C25.8129 18.7425 25.8876 18.4944 26.0316 18.2813C26.1879 18.0582 26.3964 17.8717 26.6412 17.7363C26.9404 17.5705 27.2659 17.451 27.6054 17.3825C28.0222 17.2954 28.4482 17.2534 28.8751 17.2575C29.2341 17.2587 29.5927 17.2829 29.9482 17.33C30.3322 17.3789 30.712 17.4528 31.0851 17.5513C31.4645 17.6502 31.8356 17.7756 32.1954 17.9263C32.5445 18.0727 32.8784 18.2493 33.1928 18.4538V14.875C32.5382 14.6419 31.8593 14.4743 31.1674 14.375C30.3319 14.2606 29.4883 14.2067 28.644 14.2138C27.7211 14.2091 26.8009 14.3077 25.9027 14.5075C25.0909 14.6821 24.319 14.9924 23.6237 15.4238C22.9778 15.8287 22.4445 16.3735 22.0684 17.0125C21.67 17.7221 21.4728 18.5165 21.496 19.3188C21.4666 20.3797 21.8379 21.4162 22.5439 22.2438C23.4101 23.1614 24.5023 23.8649 25.7248 24.2925C26.2826 24.5092 26.8028 24.7213 27.2853 24.9288C27.7207 25.1111 28.1392 25.3272 28.5364 25.575C28.8568 25.7712 29.1382 26.0187 29.3678 26.3063C29.5697 26.5671 29.6768 26.8823 29.6733 27.205C29.6751 27.4468 29.6091 27.6848 29.482 27.895C29.3408 28.1208 29.1423 28.3102 28.9043 28.4463C28.6065 28.6171 28.2807 28.7405 27.9401 28.8113C27.4964 28.9046 27.0426 28.9487 26.588 28.9425C25.6959 28.941 24.811 28.7929 23.973 28.505C23.0975 28.2077 22.2856 27.7653 21.5757 27.1988ZM14.7305 17.6513H20.043V14.4925H5.23047V17.6513H10.5191V31.7188H14.7305V17.6513Z" fill="#E6F7F7"/>
</svg>
