<svg width="34" height="34" viewBox="0 0 34 34" fill="none" xmlns="http://www.w3.org/2000/svg">
<path d="M8.93018 10.017C9.10159 8.65791 10.8633 6.81072 12.2615 7.01569L12.2593 7.01345C13.6199 7.27269 14.6971 9.62072 15.3044 10.6765C15.7348 11.4426 15.4553 12.2187 15.0539 12.5462C14.5124 12.9838 13.6657 13.5876 13.8433 14.1938C14.1592 15.2715 17.9092 19.0313 19.7536 20.1001C20.4517 20.5046 20.9579 19.4376 21.3902 18.8909C21.7043 18.4704 22.4791 18.2191 23.2414 18.6342C24.3799 19.299 25.4524 20.0715 26.4441 20.9412C26.9394 21.3563 27.0557 21.9697 26.7125 22.6181C26.108 23.76 24.3596 25.2659 23.0905 24.9598C20.8738 24.4255 11.9092 20.9412 9.02968 10.847C8.86774 10.3695 8.90851 10.1889 8.93018 10.017Z" fill="#E6F7F7"/>
<path fill-rule="evenodd" clip-rule="evenodd" d="M17.4092 32.8553C15.5738 32.8553 14.5583 32.6592 12.9092 32.1085L9.75082 33.6808C7.75611 34.6738 5.40918 33.2297 5.40918 31.0092V27.6283C2.179 24.6295 0.90918 21.1718 0.90918 16.4276C0.90918 7.3549 8.29648 0 17.4092 0C26.5218 0 33.9092 7.3549 33.9092 16.4276C33.9092 25.5003 26.5218 32.8553 17.4092 32.8553ZM8.40918 26.3295L7.4551 25.4437C4.94548 23.114 3.90918 20.5093 3.90918 16.4276C3.90918 9.00449 9.95334 2.98684 17.4092 2.98684C24.8651 2.98684 30.9092 9.00449 30.9092 16.4276C30.9092 23.8508 24.8651 29.8684 17.4092 29.8684C15.9306 29.8684 15.2372 29.7355 13.8631 29.2767L12.6819 28.8823L8.40918 31.0092V26.3295Z" fill="#E6F7F7"/>
</svg>
