<svg width="21" height="21" viewBox="0 0 21 21" fill="none" xmlns="http://www.w3.org/2000/svg">
<path fill-rule="evenodd" clip-rule="evenodd" d="M15.75 2.40625C15.3876 2.40625 15.0938 2.11243 15.0938 1.75C15.0938 1.38757 15.3876 1.09375 15.75 1.09375H19.25C19.5155 1.09375 19.7547 1.25364 19.8563 1.49887C19.9579 1.74409 19.9018 2.02635 19.7141 2.21404L17.3344 4.59375H19.25C19.6124 4.59375 19.9063 4.88757 19.9063 5.25C19.9063 5.61243 19.6124 5.90625 19.25 5.90625H15.75C15.4846 5.90625 15.2453 5.74636 15.1437 5.50113C15.0421 5.25592 15.0983 4.97365 15.286 4.78596L17.6657 2.40625H15.75ZM11.8125 7.65625C11.4501 7.65625 11.1563 7.36243 11.1563 7C11.1563 6.63757 11.4501 6.34375 11.8125 6.34375H14.4375C14.703 6.34375 14.9422 6.50364 15.0438 6.74887C15.1454 6.99408 15.0893 7.27635 14.9016 7.46404L13.3969 8.96875H14.4375C14.7999 8.96875 15.0938 9.26258 15.0938 9.625C15.0938 9.98742 14.7999 10.2812 14.4375 10.2812H11.8125C11.5471 10.2812 11.3078 10.1214 11.2062 9.87612C11.1046 9.63095 11.1608 9.34867 11.3485 9.16099L12.8532 7.65625H11.8125Z" fill="#E6F7F7"/>
<path d="M10.5 19.25C15.3324 19.25 19.25 15.3324 19.25 10.5C19.25 10.0951 18.6432 10.0282 18.4338 10.3747C17.4378 12.023 15.6288 13.125 13.5625 13.125C10.4213 13.125 7.875 10.5787 7.875 7.4375C7.875 5.37114 8.97697 3.56217 10.6253 2.56616C10.9718 2.35679 10.9049 1.75 10.5 1.75C5.66751 1.75 1.75 5.66751 1.75 10.5C1.75 15.3324 5.66751 19.25 10.5 19.25Z" fill="#E6F7F7"/>
</svg>
